# Made in Blockbench 4.12.3
mtllib ring.mtl

o torus
v 0.05861388584430814 -2.3772143635738232e-17 -0.21874999999999997
v 0.09210753489819841 0.12940952255126037 0.34375
v 0.11579112127088666 0.09150635094610966 0.43213834764831843
v 0.12560118395208875 7.924047878579412e-18 0.46874999999999994
v 0.11579112127088666 -0.09150635094610965 0.43213834764831843
v 0.09210753489819841 -0.12940952255126037 0.34375
v 0.06842394852551018 -0.09150635094610968 0.25536165235168157
v 0.05861388584430808 -2.3772143635738232e-17 0.21875
v 0.06842394852551016 0.09150635094610964 0.2553616523516815
v 0.25164246510180155 0.12940952255126037 0.25164246510180155
v 0.3163472263774317 0.09150635094610966 0.31634722637743173
v 0.3431488160479112 7.924047878579412e-18 0.3431488160479112
v 0.3163472263774317 -0.09150635094610965 0.31634722637743173
v 0.25164246510180155 -0.12940952255126037 0.25164246510180155
v 0.18693770382617134 -0.09150635094610968 0.1869377038261714
v 0.16013611415569187 -2.3772143635738232e-17 0.1601361141556919
v 0.1869377038261713 0.09150635094610964 0.18693770382617134
v 0.34375 0.12940952255126037 0.09210753489819841
v 0.43213834764831843 0.09150635094610966 0.11579112127088666
v 0.46874999999999994 7.924047878579412e-18 0.12560118395208875
v 0.43213834764831843 -0.09150635094610965 0.11579112127088666
v 0.34375 -0.12940952255126037 0.09210753489819841
v 0.25536165235168157 -0.09150635094610968 0.06842394852551018
v 0.21875 -2.3772143635738232e-17 0.05861388584430808
v 0.2553616523516815 0.09150635094610964 0.06842394852551016
v 0.34375 0.12940952255126037 -0.09210753489819845
v 0.43213834764831843 0.09150635094610966 -0.11579112127088671
v 0.46874999999999994 7.924047878579412e-18 -0.1256011839520888
v 0.43213834764831843 -0.09150635094610965 -0.11579112127088671
v 0.34375 -0.12940952255126037 -0.09210753489819845
v 0.25536165235168157 -0.09150635094610968 -0.0684239485255102
v 0.21875 -2.3772143635738232e-17 -0.05861388584430811
v 0.2553616523516815 0.09150635094610964 -0.06842394852551019
v 0.25164246510180155 0.12940952255126037 -0.25164246510180155
v 0.31634722637743173 0.09150635094610966 -0.3163472263774317
v 0.3431488160479112 7.924047878579412e-18 -0.3431488160479112
v 0.31634722637743173 -0.09150635094610965 -0.3163472263774317
v 0.25164246510180155 -0.12940952255126037 -0.25164246510180155
v 0.1869377038261714 -0.09150635094610968 -0.18693770382617134
v 0.1601361141556919 -2.3772143635738232e-17 -0.16013611415569187
v 0.18693770382617134 0.09150635094610964 -0.1869377038261713
v 0.0921075348981985 0.12940952255126037 -0.34374999999999994
v 0.11579112127088678 0.09150635094610966 -0.4321383476483184
v 0.12560118395208889 7.924047878579412e-18 -0.46874999999999994
v 0.11579112127088678 -0.09150635094610965 -0.4321383476483184
v 0.0921075348981985 -0.12940952255126037 -0.34374999999999994
v 0.06842394852551024 -0.09150635094610968 -0.2553616523516815
v 0.06842394852551023 0.09150635094610964 -0.25536165235168146
v -0.09210753489819827 0.12940952255126037 -0.34375
v -0.11579112127088649 0.09150635094610966 -0.43213834764831843
v -0.12560118395208855 7.924047878579412e-18 -0.46875
v -0.11579112127088649 -0.09150635094610965 -0.43213834764831843
v -0.09210753489819827 -0.12940952255126037 -0.34375
v -0.06842394852551006 -0.09150635094610968 -0.25536165235168157
v -0.058613885844307996 -2.3772143635738232e-17 -0.21875
v -0.06842394852551005 0.09150635094610964 -0.2553616523516815
v -0.25164246510180155 0.12940952255126037 -0.2516424651018016
v -0.3163472263774317 0.09150635094610966 -0.3163472263774318
v -0.3431488160479112 7.924047878579412e-18 -0.34314881604791125
v -0.3163472263774317 -0.09150635094610965 -0.3163472263774318
v -0.25164246510180155 -0.12940952255126037 -0.2516424651018016
v -0.18693770382617134 -0.09150635094610968 -0.18693770382617142
v -0.16013611415569187 -2.3772143635738232e-17 -0.16013611415569193
v -0.1869377038261713 0.09150635094610964 -0.18693770382617136
v -0.34375 0.12940952255126037 -0.09210753489819837
v -0.43213834764831843 0.09150635094610966 -0.11579112127088662
v -0.46874999999999994 7.924047878579412e-18 -0.1256011839520887
v -0.43213834764831843 -0.09150635094610965 -0.11579112127088662
v -0.34375 -0.12940952255126037 -0.09210753489819837
v -0.25536165235168157 -0.09150635094610968 -0.06842394852551013
v -0.21875 -2.3772143635738232e-17 -0.05861388584430806
v -0.2553616523516815 0.09150635094610964 -0.06842394852551012
v -0.34375 0.12940952255126037 0.09210753489819826
v -0.43213834764831843 0.09150635094610966 0.11579112127088646
v -0.46875 7.924047878579412e-18 0.12560118395208852
v -0.43213834764831843 -0.09150635094610965 0.11579112127088646
v -0.34375 -0.12940952255126037 0.09210753489819826
v -0.25536165235168157 -0.09150635094610968 0.06842394852551005
v -0.21875 -2.3772143635738232e-17 0.05861388584430798
v -0.2553616523516815 0.09150635094610964 0.06842394852551004
v -0.2516424651018016 0.12940952255126037 0.2516424651018015
v -0.3163472263774318 0.09150635094610966 0.3163472263774317
v -0.34314881604791125 7.924047878579412e-18 0.34314881604791114
v -0.3163472263774318 -0.09150635094610965 0.3163472263774317
v -0.2516424651018016 -0.12940952255126037 0.2516424651018015
v -0.18693770382617142 -0.09150635094610968 0.1869377038261713
v -0.16013611415569193 -2.3772143635738232e-17 0.16013611415569184
v -0.18693770382617136 0.09150635094610964 0.18693770382617128
v -0.0921075348981984 0.12940952255126037 0.34375
v -0.11579112127088663 0.09150635094610966 0.43213834764831843
v -0.12560118395208872 7.924047878579412e-18 0.46874999999999994
v -0.11579112127088663 -0.09150635094610965 0.43213834764831843
v -0.0921075348981984 -0.12940952255126037 0.34375
v -0.06842394852551016 -0.09150635094610968 0.25536165235168157
v -0.05861388584430807 -2.3772143635738232e-17 0.21875
v -0.06842394852551013 0.09150635094610964 0.2553616523516815
vt 0.0236875 1
vt 0 0.9038250000000001
vt 0.2315875 0.9038250000000001
vt 0.2079 1
vt 0.009806249999999989 1
vt 0 0.90144375
vt 0.2512 0.90144375
vt 0.24139375 1
vt 0 1
vt 0.009806249999999989 0.90144375
vt 0.24139375 0.90144375
vt 0.2512 1
vt 0 1
vt 0.0236875 0.9038250000000001
vt 0.2079 0.9038250000000001
vt 0.2315875 1
vt 0.1842125 0.903825
vt 0.16053125000000001 1
vt 0.02368125 1
vt 0 0.903825
vt 0.13685 0.9014375
vt 0.1270375 1
vt 0.009812500000000002 1
vt 0 0.9014375
vt 0.1270375 0.9014375
vt 0.13685 1
vt 0 1
vt 0.009812500000000002 0.9014375
vt 0.16053125000000001 0.903825
vt 0.1842125 1
vt 0 1
vt 0.02368125 0.903825
vt 0.0236875 1
vt 0 0.9038250000000001
vt 0.2315875 0.9038250000000001
vt 0.2079 1
vt 0.009806249999999989 1
vt 0 0.90144375
vt 0.2512 0.90144375
vt 0.24139375 1
vt 0 1
vt 0.009806249999999989 0.90144375
vt 0.24139375 0.90144375
vt 0.2512 1
vt 0 1
vt 0.0236875 0.9038250000000001
vt 0.2079 0.9038250000000001
vt 0.2315875 1
vt 0.1842125 0.903825
vt 0.16053125000000001 1
vt 0.02368125 1
vt 0 0.903825
vt 0.13685 0.9014375
vt 0.1270375 1
vt 0.009812500000000002 1
vt 0 0.9014375
vt 0.1270375 0.9014375
vt 0.13685 1
vt 0 1
vt 0.009812500000000002 0.9014375
vt 0.16053125000000001 0.903825
vt 0.1842125 1
vt 0 1
vt 0.02368125 0.903825
vt 0.0236875 1
vt 0 0.9038250000000001
vt 0.2315875 0.9038250000000001
vt 0.2079 1
vt 0.009806249999999989 1
vt 0 0.90144375
vt 0.2512 0.90144375
vt 0.24139375 1
vt 0 1
vt 0.009806249999999989 0.90144375
vt 0.24139375 0.90144375
vt 0.2512 1
vt 0 1
vt 0.0236875 0.9038250000000001
vt 0.2079 0.9038250000000001
vt 0.2315875 1
vt 0.1842125 0.903825
vt 0.16053125000000001 1
vt 0.02368125 1
vt 0 0.903825
vt 0.13685 0.9014375
vt 0.1270375 1
vt 0.009812500000000002 1
vt 0 0.9014375
vt 0.1270375 0.9014375
vt 0.13685 1
vt 0 1
vt 0.009812500000000002 0.9014375
vt 0.16053125000000001 0.903825
vt 0.1842125 1
vt 0 1
vt 0.02368125 0.903825
vt 0.0236875 1
vt 0 0.9038250000000001
vt 0.2315875 0.9038250000000001
vt 0.2079 1
vt 0.009806249999999989 1
vt 0 0.90144375
vt 0.2512 0.90144375
vt 0.24139375 1
vt 0 1
vt 0.009806249999999989 0.90144375
vt 0.24139375 0.90144375
vt 0.2512 1
vt 0 1
vt 0.0236875 0.9038250000000001
vt 0.2079 0.9038250000000001
vt 0.2315875 1
vt 0.1842125 0.903825
vt 0.16053125000000001 1
vt 0.02368125 1
vt 0 0.903825
vt 0.13685 0.9014375
vt 0.1270375 1
vt 0.009812500000000002 1
vt 0 0.9014375
vt 0.1270375 0.9014375
vt 0.13685 1
vt 0 1
vt 0.009812500000000002 0.9014375
vt 0.16053125000000001 0.903825
vt 0.1842125 1
vt 0 1
vt 0.02368125 0.903825
vt 0.0236875 1
vt 0 0.9038250000000001
vt 0.2315875 0.9038250000000001
vt 0.2079 1
vt 0.009806249999999989 1
vt 0 0.90144375
vt 0.2512 0.90144375
vt 0.24139375 1
vt 0 1
vt 0.009806249999999989 0.90144375
vt 0.24139375 0.90144375
vt 0.2512 1
vt 0 1
vt 0.0236875 0.9038250000000001
vt 0.2079 0.9038250000000001
vt 0.2315875 1
vt 0.1842125 0.903825
vt 0.16053125000000001 1
vt 0.02368125 1
vt 0 0.903825
vt 0.13685 0.9014375
vt 0.1270375 1
vt 0.009812500000000002 1
vt 0 0.9014375
vt 0.1270375 0.9014375
vt 0.13685 1
vt 0 1
vt 0.009812500000000002 0.9014375
vt 0.16053125000000001 0.903825
vt 0.1842125 1
vt 0 1
vt 0.02368125 0.903825
vt 0.0236875 1
vt 0 0.9038250000000001
vt 0.2315875 0.9038250000000001
vt 0.2079 1
vt 0.009806249999999989 1
vt 0 0.90144375
vt 0.2512 0.90144375
vt 0.24139375 1
vt 0 1
vt 0.009806249999999989 0.90144375
vt 0.24139375 0.90144375
vt 0.2512 1
vt 0 1
vt 0.0236875 0.9038250000000001
vt 0.2079 0.9038250000000001
vt 0.2315875 1
vt 0.1842125 0.903825
vt 0.16053125000000001 1
vt 0.02368125 1
vt 0 0.903825
vt 0.13685 0.9014375
vt 0.1270375 1
vt 0.009812500000000002 1
vt 0 0.9014375
vt 0.1270375 0.9014375
vt 0.13685 1
vt 0 1
vt 0.009812500000000002 0.9014375
vt 0.16053125000000001 0.903825
vt 0.1842125 1
vt 0 1
vt 0.02368125 0.903825
vt 0.0236875 1
vt 0 0.9038250000000001
vt 0.2315875 0.9038250000000001
vt 0.2079 1
vt 0.009806249999999989 1
vt 0 0.90144375
vt 0.2512 0.90144375
vt 0.24139375 1
vt 0 1
vt 0.009806249999999989 0.90144375
vt 0.24139375 0.90144375
vt 0.2512 1
vt 0 1
vt 0.0236875 0.9038250000000001
vt 0.2079 0.9038250000000001
vt 0.2315875 1
vt 0.1842125 0.903825
vt 0.16053125000000001 1
vt 0.02368125 1
vt 0 0.903825
vt 0.13685 0.9014375
vt 0.1270375 1
vt 0.009812500000000002 1
vt 0 0.9014375
vt 0.1270375 0.9014375
vt 0.13685 1
vt 0 1
vt 0.009812500000000002 0.9014375
vt 0.16053125000000001 0.903825
vt 0.1842125 1
vt 0 1
vt 0.02368125 0.903825
vt 0.0236875 1
vt 0 0.9038250000000001
vt 0.2315875 0.9038250000000001
vt 0.2079 1
vt 0.009806249999999989 1
vt 0 0.90144375
vt 0.2512 0.90144375
vt 0.24139375 1
vt 0 1
vt 0.009806249999999989 0.90144375
vt 0.24139375 0.90144375
vt 0.2512 1
vt 0 1
vt 0.0236875 0.9038250000000001
vt 0.2079 0.9038250000000001
vt 0.2315875 1
vt 0.1842125 0.903825
vt 0.16053125000000001 1
vt 0.02368125 1
vt 0 0.903825
vt 0.13685 0.9014375
vt 0.1270375 1
vt 0.009812500000000002 1
vt 0 0.9014375
vt 0.1270375 0.9014375
vt 0.13685 1
vt 0 1
vt 0.009812500000000002 0.9014375
vt 0.16053125000000001 0.903825
vt 0.1842125 1
vt 0 1
vt 0.02368125 0.903825
vt 0.0236875 1
vt 0 0.9038250000000001
vt 0.2315875 0.9038250000000001
vt 0.2079 1
vt 0.009806249999999989 1
vt 0 0.90144375
vt 0.2512 0.90144375
vt 0.24139375 1
vt 0 1
vt 0.009806249999999989 0.90144375
vt 0.24139375 0.90144375
vt 0.2512 1
vt 0 1
vt 0.0236875 0.9038250000000001
vt 0.2079 0.9038250000000001
vt 0.2315875 1
vt 0.1842125 0.903825
vt 0.16053125000000001 1
vt 0.02368125 1
vt 0 0.903825
vt 0.13685 0.9014375
vt 0.1270375 1
vt 0.009812500000000002 1
vt 0 0.9014375
vt 0.1270375 0.9014375
vt 0.13685 1
vt 0 1
vt 0.009812500000000002 0.9014375
vt 0.16053125000000001 0.903825
vt 0.1842125 1
vt 0 1
vt 0.02368125 0.903825
vt 0.0236875 1
vt 0 0.9038250000000001
vt 0.2315875 0.9038250000000001
vt 0.2079 1
vt 0.009806249999999989 1
vt 0 0.90144375
vt 0.2512 0.90144375
vt 0.24139375 1
vt 0 1
vt 0.009806249999999989 0.90144375
vt 0.24139375 0.90144375
vt 0.2512 1
vt 0 1
vt 0.0236875 0.9038250000000001
vt 0.2079 0.9038250000000001
vt 0.2315875 1
vt 0.1842125 0.903825
vt 0.16053125000000001 1
vt 0.02368125 1
vt 0 0.903825
vt 0.13685 0.9014375
vt 0.1270375 1
vt 0.009812500000000002 1
vt 0 0.9014375
vt 0.1270375 0.9014375
vt 0.13685 1
vt 0 1
vt 0.009812500000000002 0.9014375
vt 0.16053125000000001 0.903825
vt 0.1842125 1
vt 0 1
vt 0.02368125 0.903825
vt 0.0236875 1
vt 0 0.9038250000000001
vt 0.2315875 0.9038250000000001
vt 0.2079 1
vt 0.009806249999999989 1
vt 0 0.90144375
vt 0.2512 0.90144375
vt 0.24139375 1
vt 0 1
vt 0.009806249999999989 0.90144375
vt 0.24139375 0.90144375
vt 0.2512 1
vt 0 1
vt 0.0236875 0.9038250000000001
vt 0.2079 0.9038250000000001
vt 0.2315875 1
vt 0.1842125 0.903825
vt 0.16053125000000001 1
vt 0.02368125 1
vt 0 0.903825
vt 0.13685 0.9014375
vt 0.1270375 1
vt 0.009812500000000002 1
vt 0 0.9014375
vt 0.1270375 0.9014375
vt 0.13685 1
vt 0 1
vt 0.009812500000000002 0.9014375
vt 0.16053125000000001 0.903825
vt 0.1842125 1
vt 0 1
vt 0.02368125 0.903825
vt 0.0236875 1
vt 0 0.9038250000000001
vt 0.2315875 0.9038250000000001
vt 0.2079 1
vt 0.009806249999999989 1
vt 0 0.90144375
vt 0.2512 0.90144375
vt 0.24139375 1
vt 0 1
vt 0.009806249999999989 0.90144375
vt 0.24139375 0.90144375
vt 0.2512 1
vt 0 1
vt 0.0236875 0.9038250000000001
vt 0.2079 0.9038250000000001
vt 0.2315875 1
vt 0.1842125 0.903825
vt 0.16053125000000001 1
vt 0.02368125 1
vt 0 0.903825
vt 0.13685 0.9014375
vt 0.1270375 1
vt 0.009812500000000002 1
vt 0 0.9014375
vt 0.1270375 0.9014375
vt 0.13685 1
vt 0 1
vt 0.009812500000000002 0.9014375
vt 0.16053125000000001 0.903825
vt 0.1842125 1
vt 0 1
vt 0.02368125 0.903825
vn 0.19705825599715993 0.919060484937434 0.34131491143799525
vn 0.46422240369631945 0.371470375165565 0.8040567892137758
vn 0.4642224036963197 -0.3714703751655649 0.8040567892137754
vn 0.19705825599715993 -0.919060484937434 0.3413149114379954
vn -0.19705825599715987 -0.9190604849374342 -0.34131491143799514
vn -0.4642224036963195 -0.37147037516556547 -0.8040567892137754
vn -0.4642224036963197 0.3714703751655649 -0.8040567892137757
vn -0.1970582559971599 0.919060484937434 -0.3413149114379953
vn 0.34131491143799536 0.919060484937434 0.19705825599716
vn 0.8040567892137754 0.37147037516556575 0.46422240369631934
vn 0.8040567892137753 -0.3714703751655657 0.46422240369631956
vn 0.3413149114379955 -0.919060484937434 0.19705825599716
vn -0.341314911437995 -0.9190604849374341 -0.19705825599715981
vn -0.8040567892137754 -0.37147037516556547 -0.46422240369631956
vn -0.8040567892137754 0.3714703751655649 -0.46422240369631973
vn -0.34131491143799525 0.9190604849374341 -0.19705825599715987
vn 0.39411651199431963 0.919060484937434 0
vn 0.928444807392639 0.37147037516556497 0
vn 0.9284448073926391 -0.37147037516556486 0
vn 0.3941165119943199 -0.919060484937434 0
vn -0.3941165119943196 -0.9190604849374341 0
vn -0.9284448073926389 -0.37147037516556547 0
vn -0.928444807392639 0.3714703751655649 0
vn -0.39411651199431974 0.9190604849374341 0
vn 0.3413149114379952 0.919060484937434 -0.19705825599715995
vn 0.8040567892137755 0.37147037516556497 -0.4642224036963195
vn 0.8040567892137755 -0.37147037516556497 -0.46422240369631984
vn 0.3413149114379953 -0.919060484937434 -0.19705825599715993
vn -0.3413149114379951 -0.9190604849374341 0.19705825599715987
vn -0.8040567892137754 -0.3714703751655654 0.46422240369631956
vn -0.8040567892137754 0.37147037516556486 0.4642224036963196
vn -0.34131491143799525 0.919060484937434 0.19705825599715993
vn 0.19705825599716 0.919060484937434 -0.3413149114379952
vn 0.46422240369631956 0.37147037516556575 -0.8040567892137753
vn 0.4642224036963197 -0.3714703751655657 -0.8040567892137751
vn 0.19705825599716 -0.9190604849374339 -0.3413149114379954
vn -0.1970582559971598 -0.9190604849374341 0.341314911437995
vn -0.46422240369631973 -0.3714703751655654 0.8040567892137754
vn -0.4642224036963197 0.3714703751655649 0.8040567892137754
vn -0.19705825599715984 0.919060484937434 0.34131491143799525
vn 9.736079074952076e-17 0.919060484937434 -0.3941165119943197
vn 1.9268329986130036e-16 0.3714703751655654 -0.9284448073926389
vn 2.2800853805227644e-16 -0.3714703751655655 -0.9284448073926389
vn 1.2239514542612825e-16 -0.919060484937434 -0.39411651199431974
vn -1.647597861807716e-16 -0.9190604849374341 0.39411651199431946
vn -2.2521424659113027e-16 -0.37147037516556514 0.928444807392639
vn -3.8584976239080434e-16 0.3714703751655647 0.9284448073926391
vn -1.2239514542612818e-16 0.919060484937434 0.3941165119943197
vn -0.19705825599715973 0.919060484937434 -0.34131491143799536
vn -0.46422240369631906 0.37147037516556536 -0.8040567892137755
vn -0.46422240369631906 -0.37147037516556525 -0.8040567892137757
vn -0.19705825599715973 -0.9190604849374341 -0.34131491143799547
vn 0.19705825599715962 -0.9190604849374342 0.3413149114379953
vn 0.464222403696319 -0.3714703751655653 0.8040567892137757
vn 0.4642224036963192 0.3714703751655648 0.8040567892137758
vn 0.1970582559971597 0.9190604849374341 0.34131491143799547
vn -0.3413149114379954 0.9190604849374341 -0.19705825599715998
vn -0.8040567892137754 0.37147037516556564 -0.4642224036963191
vn -0.8040567892137753 -0.3714703751655657 -0.4642224036963194
vn -0.3413149114379956 -0.919060484937434 -0.19705825599715995
vn 0.341314911437995 -0.9190604849374341 0.1970582559971597
vn 0.8040567892137754 -0.37147037516556536 0.46422240369631934
vn 0.8040567892137755 0.37147037516556486 0.4642224036963195
vn 0.3413149114379952 0.9190604849374341 0.19705825599715976
vn -0.39411651199431963 0.9190604849374341 0
vn -0.9284448073926389 0.3714703751655649 -2.101999634850551e-16
vn -0.928444807392639 -0.3714703751655648 0
vn -0.3941165119943199 -0.9190604849374341 0
vn 0.3941165119943197 -0.9190604849374342 0
vn 0.9284448073926388 -0.37147037516556547 0
vn 0.928444807392639 0.3714703751655649 0
vn 0.3941165119943197 0.919060484937434 0
vn -0.3413149114379954 0.919060484937434 0.1970582559971597
vn -0.8040567892137755 0.3714703751655653 0.4642224036963191
vn -0.8040567892137757 -0.37147037516556525 0.4642224036963191
vn -0.34131491143799547 -0.919060484937434 0.1970582559971598
vn 0.3413149114379953 -0.9190604849374342 -0.19705825599715965
vn 0.8040567892137754 -0.37147037516556536 -0.4642224036963191
vn 0.8040567892137757 0.3714703751655648 -0.46422240369631923
vn 0.3413149114379954 0.9190604849374341 -0.19705825599715973
vn -0.19705825599715993 0.919060484937434 0.34131491143799525
vn -0.4642224036963194 0.37147037516556525 0.8040567892137754
vn -0.46422240369631956 -0.37147037516556525 0.8040567892137754
vn -0.19705825599715995 -0.9190604849374341 0.3413149114379953
vn 0.19705825599715984 -0.9190604849374341 -0.341314911437995
vn 0.4642224036963196 -0.3714703751655654 -0.8040567892137752
vn 0.4642224036963196 0.3714703751655649 -0.8040567892137754
vn 0.1970582559971599 0.9190604849374341 -0.34131491143799525
vn 0 0.919060484937434 0.3941165119943197
vn 0 0.37147037516556497 0.928444807392639
vn 0 -0.3714703751655649 0.9284448073926391
vn 0 -0.919060484937434 0.39411651199431974
vn 0 -0.9190604849374341 -0.3941165119943196
vn 0 -0.37147037516556536 -0.9284448073926388
vn 0 0.37147037516556486 -0.928444807392639
vn 0 0.919060484937434 -0.39411651199431974
usemtl m_248e8a90-a9b6-b7d0-1b2f-2f1434ee069e
f 2/1/1 3/2/1 11/3/1 10/4/1
f 3/5/2 4/6/2 12/7/2 11/8/2
f 4/9/3 5/10/3 13/11/3 12/12/3
f 5/13/4 6/14/4 14/15/4 13/16/4
f 6/17/5 7/18/5 15/19/5 14/20/5
f 7/21/6 8/22/6 16/23/6 15/24/6
f 8/25/7 9/26/7 17/27/7 16/28/7
f 9/29/8 2/30/8 10/31/8 17/32/8
f 10/33/9 11/34/9 19/35/9 18/36/9
f 11/37/10 12/38/10 20/39/10 19/40/10
f 12/41/11 13/42/11 21/43/11 20/44/11
f 13/45/12 14/46/12 22/47/12 21/48/12
f 14/49/13 15/50/13 23/51/13 22/52/13
f 15/53/14 16/54/14 24/55/14 23/56/14
f 16/57/15 17/58/15 25/59/15 24/60/15
f 17/61/16 10/62/16 18/63/16 25/64/16
f 18/65/17 19/66/17 27/67/17 26/68/17
f 19/69/18 20/70/18 28/71/18 27/72/18
f 20/73/19 21/74/19 29/75/19 28/76/19
f 21/77/20 22/78/20 30/79/20 29/80/20
f 22/81/21 23/82/21 31/83/21 30/84/21
f 23/85/22 24/86/22 32/87/22 31/88/22
f 24/89/23 25/90/23 33/91/23 32/92/23
f 25/93/24 18/94/24 26/95/24 33/96/24
f 26/97/25 27/98/25 35/99/25 34/100/25
f 27/101/26 28/102/26 36/103/26 35/104/26
f 28/105/27 29/106/27 37/107/27 36/108/27
f 29/109/28 30/110/28 38/111/28 37/112/28
f 30/113/29 31/114/29 39/115/29 38/116/29
f 31/117/30 32/118/30 40/119/30 39/120/30
f 32/121/31 33/122/31 41/123/31 40/124/31
f 33/125/32 26/126/32 34/127/32 41/128/32
f 34/129/33 35/130/33 43/131/33 42/132/33
f 35/133/34 36/134/34 44/135/34 43/136/34
f 36/137/35 37/138/35 45/139/35 44/140/35
f 37/141/36 38/142/36 46/143/36 45/144/36
f 38/145/37 39/146/37 47/147/37 46/148/37
f 39/149/38 40/150/38 1/151/38 47/152/38
f 40/153/39 41/154/39 48/155/39 1/156/39
f 41/157/40 34/158/40 42/159/40 48/160/40
f 42/161/41 43/162/41 50/163/41 49/164/41
f 43/165/42 44/166/42 51/167/42 50/168/42
f 44/169/43 45/170/43 52/171/43 51/172/43
f 45/173/44 46/174/44 53/175/44 52/176/44
f 46/177/45 47/178/45 54/179/45 53/180/45
f 47/181/46 1/182/46 55/183/46 54/184/46
f 1/185/47 48/186/47 56/187/47 55/188/47
f 48/189/48 42/190/48 49/191/48 56/192/48
f 49/193/49 50/194/49 58/195/49 57/196/49
f 50/197/50 51/198/50 59/199/50 58/200/50
f 51/201/51 52/202/51 60/203/51 59/204/51
f 52/205/52 53/206/52 61/207/52 60/208/52
f 53/209/53 54/210/53 62/211/53 61/212/53
f 54/213/54 55/214/54 63/215/54 62/216/54
f 55/217/55 56/218/55 64/219/55 63/220/55
f 56/221/56 49/222/56 57/223/56 64/224/56
f 57/225/57 58/226/57 66/227/57 65/228/57
f 58/229/58 59/230/58 67/231/58 66/232/58
f 59/233/59 60/234/59 68/235/59 67/236/59
f 60/237/60 61/238/60 69/239/60 68/240/60
f 61/241/61 62/242/61 70/243/61 69/244/61
f 62/245/62 63/246/62 71/247/62 70/248/62
f 63/249/63 64/250/63 72/251/63 71/252/63
f 64/253/64 57/254/64 65/255/64 72/256/64
f 65/257/65 66/258/65 74/259/65 73/260/65
f 66/261/66 67/262/66 75/263/66 74/264/66
f 67/265/67 68/266/67 76/267/67 75/268/67
f 68/269/68 69/270/68 77/271/68 76/272/68
f 69/273/69 70/274/69 78/275/69 77/276/69
f 70/277/70 71/278/70 79/279/70 78/280/70
f 71/281/71 72/282/71 80/283/71 79/284/71
f 72/285/72 65/286/72 73/287/72 80/288/72
f 73/289/73 74/290/73 82/291/73 81/292/73
f 74/293/74 75/294/74 83/295/74 82/296/74
f 75/297/75 76/298/75 84/299/75 83/300/75
f 76/301/76 77/302/76 85/303/76 84/304/76
f 77/305/77 78/306/77 86/307/77 85/308/77
f 78/309/78 79/310/78 87/311/78 86/312/78
f 79/313/79 80/314/79 88/315/79 87/316/79
f 80/317/80 73/318/80 81/319/80 88/320/80
f 81/321/81 82/322/81 90/323/81 89/324/81
f 82/325/82 83/326/82 91/327/82 90/328/82
f 83/329/83 84/330/83 92/331/83 91/332/83
f 84/333/84 85/334/84 93/335/84 92/336/84
f 85/337/85 86/338/85 94/339/85 93/340/85
f 86/341/86 87/342/86 95/343/86 94/344/86
f 87/345/87 88/346/87 96/347/87 95/348/87
f 88/349/88 81/350/88 89/351/88 96/352/88
f 89/353/89 90/354/89 3/355/89 2/356/89
f 90/357/90 91/358/90 4/359/90 3/360/90
f 91/361/91 92/362/91 5/363/91 4/364/91
f 92/365/92 93/366/92 6/367/92 5/368/92
f 93/369/93 94/370/93 7/371/93 6/372/93
f 94/373/94 95/374/94 8/375/94 7/376/94
f 95/377/95 96/378/95 9/379/95 8/380/95
f 96/381/96 89/382/96 2/383/96 9/384/96